<?xml version="1.0" encoding="utf-8"?>
<!-- Generator: Adobe Illustrator 15.1.0, SVG Export Plug-In . SVG Version: 6.00 Build 0)  -->
<!DOCTYPE svg PUBLIC "-//W3C//DTD SVG 1.1//EN" "http://www.w3.org/Graphics/SVG/1.1/DTD/svg11.dtd">
<svg version="1.1" id="Layer_1" xmlns="http://www.w3.org/2000/svg" xmlns:xlink="http://www.w3.org/1999/xlink" x="0px" y="0px"
	 width="792px" height="612px" viewBox="0 0 792 612" enable-background="new 0 0 792 612" xml:space="preserve">
<path fill-rule="evenodd" clip-rule="evenodd" stroke="#000000" stroke-width="3" stroke-linecap="round" stroke-linejoin="round" stroke-miterlimit="22.9256" d="
	M43.83,259.737L43.83,259.737c3.242,0,6.009,2.133,6.969,5.064h5.026c4.179,0,7.9,2.052,10.209,5.197h19.244v-0.133
	c0-2.053,1.68-3.732,3.732-3.732h204.442v-5.202c0-3.626,2.622-6.67,6.064-7.33v-16.528h-2.332c-2.676,0-4.865-2.189-4.865-4.864
	l0,0c0-2.676,2.189-4.865,4.865-4.865h20.79c2.676,0,4.865,2.189,4.865,4.865l0,0c0,2.675-2.188,4.864-4.865,4.864h-2.332v16.527
	c3.442,0.66,6.063,3.703,6.063,7.33v5.202H335.3v-5.202c0-3.626,2.622-6.67,6.063-7.33v-16.528h-2.333
	c-2.675,0-4.864-2.189-4.864-4.864l0,0c0-2.676,2.189-4.865,4.864-4.865h20.791c2.676,0,4.865,2.189,4.865,4.865l0,0
	c0,2.675-2.189,4.864-4.865,4.864h-2.333v16.527c3.442,0.66,6.064,3.703,6.064,7.33v5.202h13.595v-5.202
	c0-3.626,2.622-6.67,6.063-7.33v-16.528h-2.332c-2.676,0-4.865-2.189-4.865-4.864l0,0c0-2.676,2.189-4.865,4.865-4.865h20.79
	c2.676,0,4.865,2.189,4.865,4.865l0,0c0,2.675-2.189,4.864-4.865,4.864h-2.332v16.527c3.442,0.66,6.063,3.703,6.063,7.33v5.202
	h8.836c14.849-0.526,33.215-1.081,55.754-2.221c43.892-2.222,103.597-6.665,142.157-10.308c38.561-3.643,55.975-6.486,71.345-11.284
	c15.371-4.798,28.698-11.55,38.116-18.836s14.927-15.104,18.036-21.323c3.11-6.219,3.821-10.84,5.064-12.261
	c1.244-1.421,3.021,0.355,5.331,11.017c8.612,39.748,8.612,100.976,0,140.724c-2.311,10.662-4.087,12.438-5.331,11.018
	c-1.243-1.422-1.954-6.042-5.064-12.262c-3.109-6.22-8.618-14.038-18.036-21.323s-22.745-14.038-38.116-18.836
	c-15.37-4.798-32.784-7.641-71.522-9.223c-2.878-0.118-5.876-0.228-8.974-0.332c10.701,9.256,17.502,22.916,17.502,38.088l0,0
	c0,27.707-22.669,50.377-50.377,50.377H535.01H405.401v36.913c0,4.104-3.358,7.463-7.463,7.463h-13.327
	c-4.105,0-7.463-3.358-7.463-7.463v-36.913h-13.595v36.913c0,4.104-3.358,7.463-7.464,7.463h-13.327
	c-4.104,0-7.463-3.358-7.463-7.463v-36.913h-13.595v36.913c0,4.104-3.358,7.463-7.463,7.463h-13.327
	c-4.104,0-7.463-3.358-7.463-7.463v-36.913h-61.902H184.7c-27.708,0-50.377-22.67-50.377-50.377l0,0
	c0-16.243,7.793-30.752,19.823-39.98H89.01c-2.052,0-3.732-1.679-3.732-3.732v-0.133H66.035c-2.309,3.146-6.031,5.198-10.21,5.198
	h-5.026c-0.96,2.932-3.727,5.064-6.969,5.064l0,0c-4.032,0-7.33-3.298-7.33-7.33v-10.395v0v-10.395
	C36.5,263.036,39.798,259.737,43.83,259.737L43.83,259.737z M231.549,329.703h61.902v-34.784H184.7
	c-18.618,0-33.852,15.233-33.852,33.853l0,0c0,18.618,15.234,33.852,33.852,33.852h23.534c-0.91-2.568-1.407-5.327-1.407-8.197l0,0
	C206.827,340.828,217.951,329.703,231.549,329.703L231.549,329.703z M321.705,329.703H335.3v-34.784h-13.595V329.703
	L321.705,329.703z M363.554,329.703h13.595v-34.784h-13.595V329.703L363.554,329.703z M405.401,329.703H535.01
	c13.598,0,24.722,11.125,24.722,24.723l0,0c0,2.87-0.497,5.629-1.407,8.197h11.797c18.619,0,33.853-15.233,33.853-33.852l0,0
	c0-18.619-15.233-33.853-33.853-33.853h-164.72V329.703L405.401,329.703z M230.916,345.93h62.536v16.693h-64.762
	c-3.602-0.984-6.27-4.294-6.27-8.197l0,0C222.42,349.752,226.243,345.93,230.916,345.93L230.916,345.93z M321.705,345.93H335.3
	v16.693h-13.595V345.93L321.705,345.93z M363.554,345.93h13.595v16.693h-13.595V345.93L363.554,345.93z M405.401,345.93h130.241
	c4.673,0,8.496,3.822,8.496,8.496l0,0c0,3.903-2.668,7.213-6.27,8.197H405.401V345.93z"/>
</svg>
